<svg id="Layer_1" data-name="Layer 1" xmlns="http://www.w3.org/2000/svg" viewBox="0 0 453.51 340.68"><defs><style>.cls-1{font-size:14px;fill:#f90;}.cls-1,.cls-6{font-family:Niramit-Regular, Niramit;}.cls-2{letter-spacing:-0.06em;}.cls-3{letter-spacing:-0.05em;}.cls-4{letter-spacing:-0.02em;}.cls-5{letter-spacing:-0.03em;}.cls-6{font-size:10px;}.cls-7{letter-spacing:-0.13em;}.cls-8{letter-spacing:-0.03em;}.cls-9{letter-spacing:-0.04em;}.cls-10{letter-spacing:-0.06em;}.cls-11{letter-spacing:-0.09em;}.cls-12{letter-spacing:-0.05em;}.cls-13{letter-spacing:-0.06em;}.cls-14{letter-spacing:0em;}.cls-15{letter-spacing:-0.04em;}.cls-16{letter-spacing:0em;}.cls-17{letter-spacing:-0.04em;}.cls-18{letter-spacing:-0.02em;}.cls-19,.cls-24{letter-spacing:3.34em;}.cls-20,.cls-24{fill:#fff;stroke:#000;stroke-miterlimit:10;stroke-width:0.5px;}.cls-21{letter-spacing:-0.07em;}.cls-22{letter-spacing:-0.02em;}.cls-23{letter-spacing:2.02em;}.cls-25{letter-spacing:0em;}.cls-26{letter-spacing:-0.08em;}.cls-27{letter-spacing:-0.09em;}.cls-28{letter-spacing:-0.04em;}.cls-29{letter-spacing:-0.04em;}.cls-30{letter-spacing:-0.03em;}.cls-31{letter-spacing:-0.04em;}</style></defs><title>strategy_3</title><text class="cls-1" transform="translate(11.62 22.46)">D<tspan class="cls-2" x="8.85" y="0">r</tspan><tspan x="13.48" y="0">a</tspan><tspan class="cls-3" x="21.41" y="0">f</tspan><tspan x="26.31" y="0">t and </tspan><tspan class="cls-4" x="62.24" y="0">R</tspan><tspan x="70.04" y="0">efine a St</tspan><tspan class="cls-2" x="128.8" y="0">r</tspan><tspan x="133.43" y="0">a</tspan><tspan class="cls-5" x="141.36" y="0">te</tspan><tspan x="153.42" y="0">gic/Busin</tspan><tspan class="cls-4" x="211.85" y="0">es</tspan><tspan x="225.54" y="0">s Plan</tspan></text><text class="cls-6" transform="translate(11.62 41.55)"><tspan class="cls-7">Y</tspan><tspan x="5.06" y="0">ou N</tspan><tspan class="cls-8" x="24.57" y="0">ee</tspan><tspan x="34.93" y="0">d </tspan><tspan class="cls-9" x="43.21" y="0">T</tspan><tspan x="48.32" y="0">his If </tspan><tspan class="cls-7" x="72.97" y="0">Y</tspan><tspan x="78.03" y="0">ou </tspan><tspan class="cls-10" x="91.41" y="0">W</tspan><tspan x="99.13" y="0">ant </tspan><tspan class="cls-11" x="116.52" y="0">T</tspan><tspan x="121.13" y="0">o: Clari</tspan><tspan class="cls-12" x="151.64" y="0">f</tspan><tspan x="155.14" y="0">y </tspan><tspan class="cls-13" x="163.4" y="0">y</tspan><tspan x="168.43" y="0">our o</tspan><tspan class="cls-9" x="191.25" y="0">r</tspan><tspan class="cls-14" x="194.76" y="0">gani</tspan><tspan class="cls-12" x="214" y="0">z</tspan><tspan x="218.83" y="0">ation’s </tspan><tspan class="cls-8" x="251.21" y="0">fu</tspan><tspan x="259.98" y="0">tu</tspan><tspan class="cls-12" x="268.99" y="0">r</tspan><tspan x="272.5" y="0">e di</tspan><tspan class="cls-12" x="288.65" y="0">r</tspan><tspan class="cls-8" x="292.16" y="0">ec</tspan><tspan x="302.24" y="0">tion </tspan><tspan class="cls-2" x="321.88" y="0">o</tspan><tspan class="cls-15" x="326.71" y="0">v</tspan><tspan x="331.72" y="0">er the </tspan><tspan x="0" y="12">n</tspan><tspan class="cls-12" x="5.46" y="12">e</tspan><tspan x="10.44" y="12">xt 3-5 </tspan><tspan class="cls-9" x="41.81" y="12">y</tspan><tspan class="cls-8" x="47.04" y="12">e</tspan><tspan x="52.22" y="12">a</tspan><tspan class="cls-8" x="57.88" y="12">r</tspan><tspan x="61.59" y="12">s and define a </tspan><tspan class="cls-9" x="126.61" y="12">r</tspan><tspan x="130.12" y="12">oadmap </tspan><tspan class="cls-13" x="168.83" y="12">f</tspan><tspan x="172.13" y="12">or h</tspan><tspan class="cls-12" x="189.54" y="12">o</tspan><tspan class="cls-16" x="194.57" y="12">w </tspan><tspan class="cls-8" x="204.27" y="12">t</tspan><tspan x="207.71" y="12">o g</tspan><tspan class="cls-8" x="221.45" y="12">e</tspan><tspan x="226.63" y="12">t the</tspan><tspan class="cls-12" x="247.41" y="12">r</tspan><tspan x="250.92" y="12">e.</tspan></text><text class="cls-6" transform="translate(11.62 73.63)">• <tspan class="cls-17" x="6.31" y="0">W</tspan><tspan x="14.28" y="0">ork </tspan><tspan class="cls-18" x="31.15" y="0">w</tspan><tspan x="38.02" y="0">ith </tspan><tspan class="cls-13" x="52.12" y="0">y</tspan><tspan x="57.15" y="0">ou </tspan><tspan class="cls-8" x="70.53" y="0">t</tspan><tspan x="73.97" y="0">o a</tspan><tspan class="cls-8" x="87.69" y="0">r</tspan><tspan x="91.4" y="0">ticula</tspan><tspan class="cls-8" x="115.7" y="0">t</tspan><tspan x="119.14" y="0">e and/or </tspan><tspan class="cls-12" x="160.47" y="0">r</tspan><tspan x="163.98" y="0">efine:</tspan><tspan class="cls-19" x="0" y="12">	</tspan><tspan class="cls-20" x="36" y="12">• </tspan><tspan class="cls-12" x="42.31" y="12">T</tspan><tspan x="47.42" y="12">he p</tspan><tspan class="cls-9" x="66.52" y="12">r</tspan><tspan x="70.03" y="12">oblem </tspan><tspan class="cls-8" x="99.19" y="12">s</tspan><tspan class="cls-12" x="103.79" y="12">t</tspan><tspan x="107.03" y="12">a</tspan><tspan class="cls-18" x="112.69" y="12">t</tspan><tspan x="116.13" y="12">ement and oppo</tspan><tspan class="cls-18" x="188.41" y="12">r</tspan><tspan class="cls-14" x="192.12" y="12">tuni</tspan><tspan class="cls-18" x="209.03" y="12">t</tspan><tspan class="cls-14" x="212.47" y="12">y </tspan><tspan class="cls-21" x="220.73" y="12">f</tspan><tspan x="224.03" y="12">or im</tspan><tspan class="cls-8" x="246.42" y="12">p</tspan><tspan x="251.87" y="12">a</tspan><tspan class="cls-22" x="257.53" y="12">c</tspan><tspan x="262.43" y="12">t, </tspan><tspan class="cls-12" x="270.95" y="12">t</tspan><tspan x="274.19" y="12">a</tspan><tspan class="cls-12" x="279.85" y="12">r</tspan><tspan x="283.36" y="12">g</tspan><tspan class="cls-8" x="289.04" y="12">e</tspan><tspan x="294.22" y="12">t audien</tspan><tspan class="cls-8" x="330.5" y="12">c</tspan><tspan x="335.4" y="12">e, and p</tspan><tspan class="cls-12" x="370.76" y="12">r</tspan><tspan x="374.27" y="12">opos</tspan><tspan class="cls-8" x="395.78" y="12">e</tspan><tspan x="400.96" y="12">d </tspan><tspan class="cls-23" x="409.24" y="12">	</tspan><tspan class="cls-19" x="0" y="24">	</tspan><tspan x="36" y="24" xml:space="preserve">   se</tspan><tspan class="cls-12" x="54.02" y="24">r</tspan><tspan class="cls-18" x="57.53" y="24">v</tspan><tspan x="62.69" y="24">i</tspan><tspan class="cls-8" x="65.13" y="24">c</tspan><tspan x="70.03" y="24">e </tspan><tspan class="cls-8" x="78.04" y="24">o</tspan><tspan class="cls-12" x="83.27" y="24">f</tspan><tspan class="cls-13" x="86.77" y="24">f</tspan><tspan x="90.07" y="24">erings</tspan><tspan class="cls-24" x="0" y="36">	</tspan><tspan class="cls-20" x="36" y="36">• </tspan><tspan class="cls-7" x="42.31" y="36">Y</tspan><tspan x="47.37" y="36">our mi</tspan><tspan class="cls-8" x="75.08" y="36">s</tspan><tspan x="79.68" y="36">sion, </tspan><tspan class="cls-8" x="102.74" y="36">v</tspan><tspan x="107.9" y="36">ision, and th</tspan><tspan class="cls-8" x="161.88" y="36">e</tspan><tspan x="167.06" y="36">o</tspan><tspan class="cls-8" x="172.54" y="36">r</tspan><tspan x="176.25" y="36">y </tspan><tspan class="cls-18" x="184.51" y="36">o</tspan><tspan class="cls-16" x="189.74" y="36">f change</tspan><tspan class="cls-24" x="0" y="48">	</tspan><tspan class="cls-20" x="36" y="48">• </tspan><tspan x="42.31" y="48">O</tspan><tspan class="cls-12" x="48.95" y="48">r</tspan><tspan x="52.46" y="48">gani</tspan><tspan class="cls-9" x="71.7" y="48">z</tspan><tspan x="76.53" y="48">ational goals </tspan><tspan class="cls-13" x="135.83" y="48">f</tspan><tspan x="139.13" y="48">or the n</tspan><tspan class="cls-12" x="173.7" y="48">e</tspan><tspan x="178.68" y="48">xt 3-5 </tspan><tspan class="cls-9" x="210.05" y="48">y</tspan><tspan class="cls-8" x="215.28" y="48">e</tspan><tspan x="220.46" y="48">a</tspan><tspan class="cls-22" x="226.12" y="48">r</tspan><tspan x="229.83" y="48">s</tspan><tspan class="cls-19"><tspan x="0" y="60">	</tspan></tspan><tspan x="0" y="72">• </tspan><tspan class="cls-8" x="6.31" y="72">C</tspan><tspan x="12.27" y="72">ondu</tspan><tspan class="cls-8" x="34.23" y="72">c</tspan><tspan x="39.13" y="72">t a</tspan><tspan class="cls-8" x="51.06" y="72">d</tspan><tspan x="56.51" y="72">ditional </tspan><tspan class="cls-9" x="92" y="72">r</tspan><tspan class="cls-8" x="95.51" y="72">e</tspan><tspan x="100.69" y="72">s</tspan><tspan class="cls-8" x="105.54" y="72">e</tspan><tspan x="110.72" y="72">a</tspan><tspan class="cls-12" x="116.38" y="72">r</tspan><tspan class="cls-16" x="119.89" y="72">ch </tspan><tspan class="cls-8" x="133.01" y="72">t</tspan><tspan x="136.45" y="72">o unde</tspan><tspan class="cls-8" x="166.42" y="72">rs</tspan><tspan class="cls-12" x="174.73" y="72">t</tspan><tspan x="177.97" y="72">and the b</tspan><tspan class="cls-12" x="220.16" y="72">r</tspan><tspan x="223.67" y="72">oader lands</tspan><tspan class="cls-8" x="276.19" y="72">c</tspan><tspan x="281.09" y="72">ape and </tspan><tspan class="cls-8" x="319.86" y="72">c</tspan><tspan class="cls-25" x="324.76" y="72">omp</tspan><tspan class="cls-22" x="343.87" y="72">e</tspan><tspan x="349.05" y="72">tit</tspan><tspan class="cls-8" x="358.87" y="72">i</tspan><tspan class="cls-15" x="361.06" y="72">v</tspan><tspan x="366.07" y="72">e </tspan><tspan class="cls-8" x="374.08" y="72">c</tspan><tspan x="378.98" y="72">on</tspan><tspan class="cls-8" x="389.92" y="72">t</tspan><tspan class="cls-12" x="393.36" y="72">e</tspan><tspan x="398.33" y="72">xt, </tspan><tspan x="0" y="84">and </tspan><tspan class="cls-13" x="19.4" y="84">v</tspan><tspan x="24.16" y="84">alida</tspan><tspan class="cls-8" x="45.66" y="84">t</tspan><tspan x="49.1" y="84">e </tspan><tspan class="cls-26" x="57.11" y="84">k</tspan><tspan class="cls-12" x="61.11" y="84">e</tspan><tspan x="66.09" y="84">y a</tspan><tspan class="cls-8" x="80.01" y="84">s</tspan><tspan x="84.61" y="84">sum</tspan><tspan class="cls-8" x="102.71" y="84">p</tspan><tspan x="108.16" y="84">tions.</tspan><tspan x="0" y="108">• </tspan><tspan class="cls-17" x="6.31" y="108">W</tspan><tspan x="14.28" y="108">ork </tspan><tspan class="cls-18" x="31.15" y="108">w</tspan><tspan x="38.02" y="108">ith </tspan><tspan class="cls-13" x="52.12" y="108">y</tspan><tspan x="57.15" y="108">ou </tspan><tspan class="cls-8" x="70.53" y="108">t</tspan><tspan x="73.97" y="108">o fl</tspan><tspan class="cls-8" x="87.18" y="108">e</tspan><tspan x="92.36" y="108">sh o</tspan><tspan class="cls-8" x="110.66" y="108">u</tspan><tspan x="115.73" y="108">t </tspan><tspan class="cls-27" x="122" y="108">k</tspan><tspan class="cls-9" x="126" y="108">e</tspan><tspan x="130.98" y="108">y elements </tspan><tspan class="cls-8" x="182.08" y="108">o</tspan><tspan class="cls-14" x="187.31" y="108">f the se</tspan><tspan class="cls-28" x="221.21" y="108">r</tspan><tspan class="cls-8" x="224.72" y="108">v</tspan><tspan x="229.88" y="108">i</tspan><tspan class="cls-8" x="232.32" y="108">c</tspan><tspan x="237.22" y="108">e </tspan><tspan class="cls-8" x="245.23" y="108">o</tspan><tspan class="cls-12" x="250.46" y="108">f</tspan><tspan class="cls-2" x="253.96" y="108">f</tspan><tspan x="257.26" y="108">erings.</tspan><tspan x="0" y="132">• Identi</tspan><tspan class="cls-12" x="31.89" y="132">f</tspan><tspan x="35.39" y="132">y the o</tspan><tspan class="cls-18" x="66.22" y="132">p</tspan><tspan x="71.67" y="132">timal l</tspan><tspan class="cls-12" x="98.05" y="132">e</tspan><tspan class="cls-29" x="103.03" y="132">v</tspan><tspan x="108.04" y="132">el </tspan><tspan class="cls-8" x="118.09" y="132">o</tspan><tspan x="123.32" y="132">f </tspan><tspan class="cls-12" x="129.85" y="132">r</tspan><tspan class="cls-18" x="133.36" y="132">e</tspan><tspan x="138.54" y="132">sou</tspan><tspan class="cls-12" x="154.19" y="132">r</tspan><tspan class="cls-8" x="157.7" y="132">ce</tspan><tspan x="167.78" y="132">s n</tspan><tspan class="cls-8" x="180.67" y="132">ee</tspan><tspan x="191.03" y="132">d</tspan><tspan class="cls-8" x="196.73" y="132">e</tspan><tspan x="201.91" y="132">d </tspan><tspan class="cls-8" x="210.19" y="132">t</tspan><tspan x="213.63" y="132">o del</tspan><tspan class="cls-8" x="234.86" y="132">i</tspan><tspan class="cls-15" x="237.05" y="132">v</tspan><tspan x="242.06" y="132">er the p</tspan><tspan class="cls-28" x="276.82" y="132">r</tspan><tspan x="280.33" y="132">og</tspan><tspan class="cls-21" x="291.49" y="132">r</tspan><tspan x="294.8" y="132">am </tspan><tspan class="cls-8" x="310.97" y="132">w</tspan><tspan x="317.84" y="132">ith fideli</tspan><tspan class="cls-8" x="352.89" y="132">t</tspan><tspan x="356.33" y="132">y and at s</tspan><tspan class="cls-8" x="400.77" y="132">c</tspan><tspan x="405.67" y="132">ale.</tspan><tspan x="0" y="156">• Identi</tspan><tspan class="cls-12" x="31.89" y="156">f</tspan><tspan x="35.39" y="156">y </tspan><tspan class="cls-26" x="43.65" y="156">k</tspan><tspan class="cls-12" x="47.65" y="156">e</tspan><tspan x="52.63" y="156">y su</tspan><tspan class="cls-8" x="71.06" y="156">cces</tspan><tspan x="90.64" y="156">s m</tspan><tspan class="cls-8" x="106" y="156">e</tspan><tspan x="111.18" y="156">tri</tspan><tspan class="cls-8" x="121.27" y="156">c</tspan><tspan x="126.17" y="156">s and c</tspan><tspan class="cls-12" x="158.15" y="156">r</tspan><tspan class="cls-18" x="161.66" y="156">e</tspan><tspan x="166.84" y="156">a</tspan><tspan class="cls-8" x="172.5" y="156">t</tspan><tspan x="175.94" y="156">e a plan </tspan><tspan class="cls-21" x="213.63" y="156">f</tspan><tspan x="216.93" y="156">or </tspan><tspan class="cls-8" x="228.95" y="156">c</tspan><tspan x="233.85" y="156">oll</tspan><tspan class="cls-8" x="243.41" y="156">ec</tspan><tspan x="253.49" y="156">ting and t</tspan><tspan class="cls-21" x="296.43" y="156">r</tspan><tspan x="299.74" y="156">ac</tspan><tspan class="cls-30" x="310.55" y="156">k</tspan><tspan x="315.05" y="156">ing </tspan><tspan class="cls-12" x="331.21" y="156">r</tspan><tspan x="334.72" y="156">el</tspan><tspan class="cls-12" x="342.19" y="156">e</tspan><tspan class="cls-2" x="347.17" y="156">v</tspan><tspan x="351.93" y="156">ant da</tspan><tspan class="cls-12" x="380.68" y="156">t</tspan><tspan x="383.92" y="156">a.</tspan><tspan x="0" y="180">• D</tspan><tspan class="cls-12" x="12.63" y="180">e</tspan><tspan class="cls-29" x="17.61" y="180">v</tspan><tspan x="22.62" y="180">elop an implemen</tspan><tspan class="cls-9" x="99.91" y="180">t</tspan><tspan x="103.15" y="180">ation plan </tspan><tspan class="cls-8" x="149.9" y="180">t</tspan><tspan x="153.34" y="180">o guide </tspan><tspan class="cls-12" x="188.55" y="180">ex</tspan><tspan class="cls-8" x="198.2" y="180">e</tspan><tspan x="203.38" y="180">c</tspan><tspan class="cls-22" x="208.53" y="180">u</tspan><tspan x="213.6" y="180">tion.</tspan><tspan x="0" y="204">• D</tspan><tspan class="cls-12" x="12.63" y="204">e</tspan><tspan class="cls-29" x="17.61" y="204">v</tspan><tspan x="22.62" y="204">elop a d</tspan><tspan class="cls-8" x="57.79" y="204">e</tspan><tspan class="cls-9" x="62.97" y="204">t</tspan><tspan x="66.21" y="204">ail</tspan><tspan class="cls-8" x="76.35" y="204">e</tspan><tspan x="81.53" y="204">d bu</tspan><tspan class="cls-8" x="100.83" y="204">d</tspan><tspan x="106.28" y="204">g</tspan><tspan class="cls-8" x="111.96" y="204">e</tspan><tspan x="117.14" y="204">t and financial model </tspan><tspan class="cls-8" x="211.77" y="204">t</tspan><tspan x="215.21" y="204">o p</tspan><tspan class="cls-12" x="228.97" y="204">r</tspan><tspan class="cls-7" x="232.48" y="204">o</tspan><tspan x="236.71" y="204">j</tspan><tspan class="cls-22" x="240.89" y="204">ec</tspan><tspan x="250.97" y="204">t o</tspan><tspan class="cls-8" x="262.72" y="204">u</tspan><tspan x="267.79" y="204">t </tspan><tspan class="cls-8" x="274.06" y="204">c</tspan><tspan x="278.96" y="204">o</tspan><tspan class="cls-8" x="284.44" y="204">s</tspan><tspan x="289.04" y="204">ts and </tspan><tspan class="cls-12" x="319.56" y="204">re</tspan><tspan class="cls-31" x="328.04" y="204">v</tspan><tspan x="333.06" y="204">enue </tspan><tspan class="cls-21" x="357.28" y="204">o</tspan><tspan class="cls-31" x="362.1" y="204">v</tspan><tspan x="367.12" y="204">er a 3-5 </tspan><tspan class="cls-12" x="0" y="216">y</tspan><tspan class="cls-18" x="5.23" y="216">e</tspan><tspan x="10.41" y="216">ar period, and identi</tspan><tspan class="cls-12" x="100.71" y="216">f</tspan><tspan x="104.21" y="216">y </tspan><tspan class="cls-8" x="112.47" y="216">f</tspan><tspan x="116.17" y="216">unding gaps.</tspan><tspan x="0" y="240">• C</tspan><tspan class="cls-12" x="12.52" y="240">r</tspan><tspan class="cls-18" x="16.03" y="240">e</tspan><tspan x="21.21" y="240">a</tspan><tspan class="cls-8" x="26.87" y="240">t</tspan><tspan x="30.31" y="240">e a d</tspan><tspan class="cls-8" x="52.26" y="240">o</tspan><tspan x="57.49" y="240">cument or d</tspan><tspan class="cls-8" x="110.77" y="240">e</tspan><tspan x="115.95" y="240">ck that summari</tspan><tspan class="cls-18" x="187.63" y="240">ze</tspan><tspan x="197.84" y="240">s the ab</tspan><tspan class="cls-21" x="233.72" y="240">o</tspan><tspan class="cls-31" x="238.55" y="240">v</tspan><tspan x="243.56" y="240">e </tspan><tspan class="cls-21" x="251.57" y="240">f</tspan><tspan x="254.87" y="240">or sharing </tspan><tspan class="cls-8" x="302.91" y="240">w</tspan><tspan x="309.78" y="240">ith in</tspan><tspan class="cls-8" x="331.78" y="240">t</tspan><tspan x="335.21" y="240">ernal and </tspan><tspan class="cls-12" x="379.75" y="240">e</tspan><tspan x="384.72" y="240">x</tspan><tspan class="cls-22" x="389.84" y="240">t</tspan><tspan x="393.29" y="240">ernal </tspan><tspan x="0" y="252">audien</tspan><tspan class="cls-8" x="30.01" y="252">ce</tspan><tspan x="40.09" y="252">s.</tspan></text></svg>