<svg id="Layer_1" data-name="Layer 1" xmlns="http://www.w3.org/2000/svg" viewBox="0 0 453.6 174.08"><defs><style>.cls-1{font-size:14px;fill:#f90;}.cls-1,.cls-13{font-family:Niramit-Regular, Niramit;}.cls-2{letter-spacing:-0.03em;}.cls-3{letter-spacing:-0.02em;}.cls-4{letter-spacing:0em;}.cls-5{letter-spacing:-0.04em;}.cls-6{letter-spacing:0em;}.cls-7{letter-spacing:-0.07em;}.cls-8{letter-spacing:0em;}.cls-9{letter-spacing:-0.03em;}.cls-10{letter-spacing:-0.05em;}.cls-11{letter-spacing:-0.04em;}.cls-12{letter-spacing:0em;}.cls-13{font-size:10px;}.cls-14{letter-spacing:-0.13em;}.cls-15{letter-spacing:-0.03em;}.cls-16{letter-spacing:-0.04em;}.cls-17{letter-spacing:-0.06em;}.cls-18{letter-spacing:-0.09em;}.cls-19{letter-spacing:-0.05em;}.cls-20{letter-spacing:-0.07em;}.cls-21{letter-spacing:-0.04em;}.cls-22{letter-spacing:-0.06em;}.cls-23{letter-spacing:-0.06em;}.cls-24{letter-spacing:0em;}.cls-25{letter-spacing:-0.04em;}.cls-26{letter-spacing:0em;}.cls-27{letter-spacing:-0.02em;}.cls-28{letter-spacing:-0.04em;}.cls-29{letter-spacing:-0.03em;}</style></defs><title>strategy_2</title><text class="cls-1" transform="translate(14.74 23.19)"><tspan class="cls-2">C</tspan><tspan x="8.34" y="0">ondu</tspan><tspan class="cls-3" x="39.09" y="0">c</tspan><tspan class="cls-4" x="45.95" y="0">t a </tspan><tspan class="cls-5" x="66.26" y="0">L</tspan><tspan class="cls-6" x="72.69" y="0">ands</tspan><tspan class="cls-3" x="103.02" y="0">c</tspan><tspan x="109.88" y="0">ape Anal</tspan><tspan class="cls-7" x="164.69" y="0">y</tspan><tspan class="cls-8" x="171.74" y="0">sis </tspan><tspan class="cls-9" x="192.34" y="0">t</tspan><tspan x="197.16" y="0">o Identi</tspan><tspan class="cls-10" x="244.25" y="0">f</tspan><tspan x="249.15" y="0">y Sou</tspan><tspan class="cls-10" x="283.94" y="0">r</tspan><tspan class="cls-3" x="288.86" y="0">ce</tspan><tspan x="302.97" y="0">s </tspan><tspan class="cls-9" x="313.37" y="0">o</tspan><tspan x="320.69" y="0">f Di</tspan><tspan class="cls-10" x="342.1" y="0">f</tspan><tspan class="cls-7" x="347" y="0">f</tspan><tspan x="351.62" y="0">e</tspan><tspan class="cls-11" x="359.22" y="0">r</tspan><tspan class="cls-12" x="364.13" y="0">entiation</tspan></text><text class="cls-13" transform="translate(14.74 44.19)"><tspan class="cls-14">Y</tspan><tspan x="5.06" y="0">ou N</tspan><tspan class="cls-15" x="24.57" y="0">ee</tspan><tspan x="34.93" y="0">d </tspan><tspan class="cls-16" x="43.21" y="0">T</tspan><tspan x="48.32" y="0">his If </tspan><tspan class="cls-14" x="72.97" y="0">Y</tspan><tspan x="78.03" y="0">ou </tspan><tspan class="cls-17" x="91.41" y="0">W</tspan><tspan x="99.13" y="0">ant </tspan><tspan class="cls-18" x="116.52" y="0">T</tspan><tspan x="121.13" y="0" xml:space="preserve">o:  Unde</tspan><tspan class="cls-15" x="156.82" y="0">rs</tspan><tspan class="cls-19" x="165.13" y="0">t</tspan><tspan x="168.37" y="0">and whe</tspan><tspan class="cls-19" x="205.71" y="0">r</tspan><tspan x="209.22" y="0">e </tspan><tspan class="cls-20" x="217.23" y="0">y</tspan><tspan x="222.26" y="0">ou fit and ensu</tspan><tspan class="cls-21" x="287.72" y="0">r</tspan><tspan x="291.23" y="0">e </tspan><tspan class="cls-20" x="299.24" y="0">y</tspan><tspan x="304.27" y="0">ou a</tspan><tspan class="cls-19" x="323.31" y="0">r</tspan><tspan x="326.82" y="0">e </tspan><tspan class="cls-15" x="0" y="12">o</tspan><tspan class="cls-16" x="5.23" y="12">f</tspan><tspan class="cls-22" x="8.73" y="12">f</tspan><tspan x="12.03" y="12">ering a unique app</tspan><tspan class="cls-19" x="95.13" y="12">r</tspan><tspan x="98.64" y="12">oach </tspan><tspan class="cls-15" x="122.9" y="12">w</tspan><tspan x="129.77" y="12">ithin the lands</tspan><tspan class="cls-15" x="192.57" y="12">c</tspan><tspan x="197.47" y="12">ape </tspan><tspan class="cls-15" x="216.84" y="12">o</tspan><tspan x="222.07" y="12">f similar o</tspan><tspan class="cls-19" x="265.98" y="12">r</tspan><tspan x="269.49" y="12">gani</tspan><tspan class="cls-21" x="288.73" y="12">z</tspan><tspan x="293.56" y="12">ations and </tspan><tspan x="0" y="24">p</tspan><tspan class="cls-19" x="5.7" y="24">r</tspan><tspan x="9.21" y="24">og</tspan><tspan class="cls-23" x="20.37" y="24">r</tspan><tspan x="23.68" y="24">ams</tspan></text><text class="cls-13" transform="translate(14.74 88.75)">• <tspan class="cls-15" x="6.31" y="0">C</tspan><tspan x="12.27" y="0">ondu</tspan><tspan class="cls-15" x="34.23" y="0">c</tspan><tspan x="39.13" y="0">t initial </tspan><tspan class="cls-16" x="72.15" y="0">r</tspan><tspan class="cls-15" x="75.66" y="0">e</tspan><tspan x="80.84" y="0">s</tspan><tspan class="cls-15" x="85.69" y="0">e</tspan><tspan x="90.87" y="0">a</tspan><tspan class="cls-19" x="96.53" y="0">r</tspan><tspan x="100.04" y="0">ch </tspan><tspan class="cls-15" x="113.16" y="0">t</tspan><tspan class="cls-24" x="116.6" y="0">o </tspan><tspan class="cls-15" x="124.66" y="0">c</tspan><tspan x="129.56" y="0">ompile a li</tspan><tspan class="cls-15" x="173.88" y="0">s</tspan><tspan x="178.48" y="0">t </tspan><tspan class="cls-15" x="184.75" y="0">o</tspan><tspan x="189.98" y="0">f </tspan><tspan class="cls-15" x="196.51" y="0">c</tspan><tspan x="201.41" y="0">om</tspan><tspan class="cls-15" x="214.82" y="0">p</tspan><tspan x="220.27" y="0">a</tspan><tspan class="cls-23" x="225.93" y="0">r</tspan><tspan x="229.24" y="0">able o</tspan><tspan class="cls-19" x="256.13" y="0">r</tspan><tspan x="259.64" y="0">gani</tspan><tspan class="cls-19" x="278.88" y="0">z</tspan><tspan x="283.71" y="0">ations and/or p</tspan><tspan class="cls-19" x="352.89" y="0">r</tspan><tspan x="356.4" y="0">og</tspan><tspan class="cls-23" x="367.56" y="0">r</tspan><tspan x="370.87" y="0">ams. </tspan><tspan class="cls-25" x="393.93" y="0">W</tspan><tspan class="cls-26" x="401.9" y="0">ork </tspan><tspan class="cls-15" x="0" y="12">w</tspan><tspan x="6.87" y="12">ith </tspan><tspan class="cls-22" x="20.97" y="12">y</tspan><tspan x="26" y="12">ou </tspan><tspan class="cls-15" x="39.38" y="12">t</tspan><tspan x="42.82" y="12">o finali</tspan><tspan class="cls-15" x="71.83" y="12">z</tspan><tspan x="76.86" y="12">e a li</tspan><tspan class="cls-27" x="97.59" y="12">s</tspan><tspan x="102.19" y="12">t </tspan><tspan class="cls-15" x="108.46" y="12">o</tspan><tspan x="113.69" y="12">f o</tspan><tspan class="cls-19" x="125.7" y="12">r</tspan><tspan x="129.21" y="12">gani</tspan><tspan class="cls-16" x="148.45" y="12">z</tspan><tspan x="153.28" y="12">ations, initiat</tspan><tspan class="cls-15" x="211.51" y="12">i</tspan><tspan class="cls-28" x="213.7" y="12">v</tspan><tspan class="cls-15" x="218.71" y="12">e</tspan><tspan x="223.89" y="12">s, and p</tspan><tspan class="cls-19" x="258.67" y="12">r</tspan><tspan x="262.18" y="12">og</tspan><tspan class="cls-23" x="273.34" y="12">r</tspan><tspan x="276.65" y="12">ams </tspan><tspan class="cls-20" x="297.67" y="12">f</tspan><tspan x="300.97" y="12">or d</tspan><tspan class="cls-15" x="318.69" y="12">e</tspan><tspan x="323.87" y="12">eper anal</tspan><tspan class="cls-23" x="365.79" y="12">y</tspan><tspan x="370.82" y="12">sis.</tspan><tspan x="0" y="36">• </tspan><tspan class="cls-15" x="6.31" y="36">C</tspan><tspan x="12.27" y="36">ondu</tspan><tspan class="cls-15" x="34.23" y="36">c</tspan><tspan x="39.13" y="36">t prima</tspan><tspan class="cls-15" x="71.09" y="36">r</tspan><tspan x="74.8" y="36">y and s</tspan><tspan class="cls-27" x="107.31" y="36">ec</tspan><tspan x="117.39" y="36">onda</tspan><tspan class="cls-15" x="139.69" y="36">r</tspan><tspan x="143.4" y="36">y </tspan><tspan class="cls-19" x="151.66" y="36">r</tspan><tspan class="cls-15" x="155.17" y="36">e</tspan><tspan x="160.35" y="36">s</tspan><tspan class="cls-15" x="165.2" y="36">e</tspan><tspan x="170.38" y="36">a</tspan><tspan class="cls-16" x="176.04" y="36">r</tspan><tspan x="179.55" y="36">ch in</tspan><tspan class="cls-15" x="200.57" y="36">t</tspan><tspan x="204.01" y="36">o sel</tspan><tspan class="cls-15" x="224.39" y="36">ecte</tspan><tspan x="243.09" y="36">d o</tspan><tspan class="cls-19" x="256.85" y="36">r</tspan><tspan x="260.36" y="36">gani</tspan><tspan class="cls-21" x="279.6" y="36">z</tspan><tspan x="284.43" y="36">ations/p</tspan><tspan class="cls-19" x="322.19" y="36">r</tspan><tspan x="325.7" y="36">og</tspan><tspan class="cls-20" x="336.85" y="36">r</tspan><tspan x="340.16" y="36">ams. </tspan><tspan x="0" y="60">• </tspan><tspan class="cls-19" x="6.31" y="60">S</tspan><tspan x="11.65" y="60">ynth</tspan><tspan class="cls-27" x="31.87" y="60">e</tspan><tspan x="37.05" y="60">si</tspan><tspan class="cls-15" x="44.34" y="60">z</tspan><tspan x="49.37" y="60">e </tspan><tspan class="cls-19" x="57.38" y="60">r</tspan><tspan class="cls-15" x="60.89" y="60">e</tspan><tspan x="66.07" y="60">s</tspan><tspan class="cls-15" x="70.92" y="60">e</tspan><tspan x="76.1" y="60">a</tspan><tspan class="cls-16" x="81.76" y="60">r</tspan><tspan x="85.27" y="60">ch</tspan><tspan class="cls-15" x="95.81" y="60">e</tspan><tspan x="100.99" y="60">d in</tspan><tspan class="cls-22" x="117.17" y="60">f</tspan><tspan x="120.47" y="60">ormation </tspan><tspan class="cls-15" x="163.15" y="60">t</tspan><tspan x="166.59" y="60">o p</tspan><tspan class="cls-16" x="180.35" y="60">r</tspan><tspan class="cls-22" x="183.86" y="60">o</tspan><tspan class="cls-29" x="188.69" y="60">v</tspan><tspan x="193.85" y="60">ide a cl</tspan><tspan class="cls-15" x="225.43" y="60">e</tspan><tspan x="230.61" y="60">ar lands</tspan><tspan class="cls-15" x="266.52" y="60">c</tspan><tspan x="271.42" y="60">ape </tspan><tspan class="cls-15" x="290.79" y="60">o</tspan><tspan x="296.02" y="60">f the field. </tspan><tspan class="cls-25" x="342.78" y="60">W</tspan><tspan x="350.75" y="60">ork </tspan><tspan class="cls-15" x="367.62" y="60">w</tspan><tspan x="374.49" y="60">ith </tspan><tspan class="cls-23" x="388.59" y="60">y</tspan><tspan x="393.62" y="60">ou </tspan><tspan class="cls-15" x="407" y="60">t</tspan><tspan x="410.44" y="60">o </tspan><tspan x="0" y="72">dis</tspan><tspan class="cls-15" x="12.99" y="72">c</tspan><tspan x="17.89" y="72">ern insights and impli</tspan><tspan class="cls-15" x="112.65" y="72">c</tspan><tspan x="117.55" y="72">ations </tspan><tspan class="cls-22" x="147.71" y="72">f</tspan><tspan x="151.01" y="72">or </tspan><tspan class="cls-22" x="163.03" y="72">y</tspan><tspan x="168.06" y="72">our o</tspan><tspan class="cls-19" x="190.88" y="72">r</tspan><tspan x="194.39" y="72">gani</tspan><tspan class="cls-21" x="213.63" y="72">z</tspan><tspan x="218.46" y="72">ation&apos;s </tspan><tspan class="cls-15" x="250.39" y="72">s</tspan><tspan x="254.99" y="72">t</tspan><tspan class="cls-20" x="258.67" y="72">r</tspan><tspan x="261.98" y="72">a</tspan><tspan class="cls-15" x="267.64" y="72">teg</tspan><tspan x="281.69" y="72">y and </tspan><tspan class="cls-21" x="309.35" y="72">w</tspan><tspan x="316.02" y="72">ork.</tspan></text></svg>