<svg id="Layer_1" data-name="Layer 1" xmlns="http://www.w3.org/2000/svg" viewBox="0 0 453.51 139.21"><defs><style>.cls-1{font-size:14px;fill:#f90;}.cls-1,.cls-10{font-family:Niramit-Regular, Niramit;}.cls-2{letter-spacing:-0.04em;}.cls-3{letter-spacing:-0.04em;}.cls-4{letter-spacing:0em;}.cls-5{letter-spacing:-0.03em;}.cls-6{letter-spacing:-0.13em;}.cls-7{letter-spacing:-0.02em;}.cls-8{letter-spacing:0em;}.cls-9{letter-spacing:-0.03em;}.cls-10{font-size:10px;}.cls-11{letter-spacing:-0.03em;}.cls-12{letter-spacing:-0.04em;}.cls-13{letter-spacing:-0.06em;}.cls-14{letter-spacing:-0.09em;}.cls-15{letter-spacing:-0.05em;}.cls-16{letter-spacing:-0.02em;}.cls-17{letter-spacing:-0.06em;}.cls-18{letter-spacing:-0.04em;}.cls-19{letter-spacing:0em;}.cls-20{letter-spacing:-0.04em;}.cls-21{letter-spacing:-0.07em;}.cls-22{letter-spacing:0em;}.cls-23{letter-spacing:-0.04em;}</style></defs><title>strategy_1</title><text class="cls-1" transform="translate(11.62 22.98)">D<tspan class="cls-2" x="8.85" y="0">e</tspan><tspan class="cls-3" x="15.82" y="0">v</tspan><tspan class="cls-4" x="22.83" y="0">elop and/or </tspan><tspan class="cls-5" x="99.2" y="0">R</tspan><tspan x="107" y="0">efine </tspan><tspan class="cls-6" x="140.95" y="0">Y</tspan><tspan x="148.03" y="0">our Vision, Mi</tspan><tspan class="cls-7" x="231.57" y="0">s</tspan><tspan class="cls-8" x="238.01" y="0">sion, and </tspan><tspan class="cls-2" x="297.45" y="0">T</tspan><tspan x="304.61" y="0">h</tspan><tspan class="cls-7" x="312.15" y="0">e</tspan><tspan x="319.41" y="0">o</tspan><tspan class="cls-9" x="327.08" y="0">r</tspan><tspan x="332.27" y="0">y </tspan><tspan class="cls-9" x="343.83" y="0">o</tspan><tspan x="351.16" y="0">f Change</tspan></text><text class="cls-10" transform="translate(11.62 43.98)"><tspan class="cls-6">Y</tspan><tspan x="5.06" y="0">ou N</tspan><tspan class="cls-11" x="24.57" y="0">ee</tspan><tspan x="34.93" y="0">d </tspan><tspan class="cls-12" x="43.21" y="0">T</tspan><tspan x="48.32" y="0">his If </tspan><tspan class="cls-6" x="72.97" y="0">Y</tspan><tspan x="78.03" y="0">ou </tspan><tspan class="cls-13" x="91.41" y="0">W</tspan><tspan x="99.13" y="0">ant </tspan><tspan class="cls-14" x="116.52" y="0">T</tspan><tspan x="121.13" y="0" xml:space="preserve">o:  C</tspan><tspan class="cls-15" x="140.12" y="0">r</tspan><tspan class="cls-11" x="143.63" y="0">e</tspan><tspan x="148.81" y="0">a</tspan><tspan class="cls-11" x="154.47" y="0">t</tspan><tspan x="157.91" y="0">e and </tspan><tspan class="cls-11" x="185.32" y="0">c</tspan><tspan x="190.22" y="0">ommuni</tspan><tspan class="cls-11" x="224.78" y="0">c</tspan><tspan x="229.68" y="0">a</tspan><tspan class="cls-11" x="235.34" y="0">t</tspan><tspan x="238.78" y="0">e a </tspan><tspan class="cls-11" x="255.03" y="0">c</tspan><tspan x="259.93" y="0">ompelling “w</tspan><tspan class="cls-15" x="315.69" y="0">h</tspan><tspan x="320.63" y="0">y” and </tspan><tspan x="0" y="12">“h</tspan><tspan class="cls-15" x="9.25" y="12">o</tspan><tspan x="14.28" y="12">w” </tspan><tspan class="cls-16" x="27.84" y="12">t</tspan><tspan x="31.28" y="12">o guide </tspan><tspan class="cls-17" x="66.49" y="12">y</tspan><tspan x="71.52" y="12">our o</tspan><tspan class="cls-15" x="94.34" y="12">r</tspan><tspan x="97.85" y="12">gani</tspan><tspan class="cls-15" x="117.09" y="12">z</tspan><tspan x="121.92" y="12">ation’s e</tspan><tspan class="cls-15" x="159.73" y="12">f</tspan><tspan class="cls-17" x="163.23" y="12">f</tspan><tspan x="166.53" y="12">o</tspan><tspan class="cls-11" x="172.01" y="12">r</tspan><tspan x="175.72" y="12">ts </tspan></text><text class="cls-10" transform="translate(11.62 76.05)">• <tspan class="cls-18" x="6.31" y="0">W</tspan><tspan x="14.28" y="0">ork </tspan><tspan class="cls-16" x="31.15" y="0">w</tspan><tspan x="38.02" y="0">ith </tspan><tspan class="cls-17" x="52.12" y="0">y</tspan><tspan x="57.15" y="0">ou, </tspan><tspan class="cls-17" x="72.78" y="0">y</tspan><tspan x="77.81" y="0">our </tspan><tspan class="cls-11" x="95.15" y="0">te</tspan><tspan x="103.77" y="0">am, and boa</tspan><tspan class="cls-15" x="158.43" y="0">r</tspan><tspan x="161.94" y="0">d </tspan><tspan class="cls-11" x="170.22" y="0">t</tspan><tspan class="cls-19" x="173.66" y="0">o a</tspan><tspan class="cls-11" x="187.38" y="0">r</tspan><tspan x="191.09" y="0">ticula</tspan><tspan class="cls-11" x="215.39" y="0">t</tspan><tspan x="218.83" y="0">e and </tspan><tspan class="cls-20" x="246.24" y="0">r</tspan><tspan x="249.75" y="0">efine </tspan><tspan class="cls-21" x="274" y="0">y</tspan><tspan x="279.03" y="0">our </tspan><tspan class="cls-11" x="296.37" y="0">v</tspan><tspan x="301.53" y="0">ision, mi</tspan><tspan class="cls-11" x="337.39" y="0">s</tspan><tspan x="341.99" y="0">sion, </tspan><tspan class="cls-11" x="365.05" y="0">c</tspan><tspan x="369.95" y="0">o</tspan><tspan class="cls-20" x="375.43" y="0">r</tspan><tspan x="378.94" y="0">e </tspan><tspan class="cls-21" x="386.95" y="0">v</tspan><tspan x="391.71" y="0">alu</tspan><tspan class="cls-11" x="404.73" y="0">e</tspan><tspan x="409.91" y="0">s, </tspan><tspan x="0" y="12">and th</tspan><tspan class="cls-11" x="28.48" y="12">e</tspan><tspan x="33.66" y="12">o</tspan><tspan class="cls-11" x="39.14" y="12">r</tspan><tspan x="42.85" y="12">y </tspan><tspan class="cls-11" x="51.11" y="12">o</tspan><tspan x="56.34" y="12">f change.</tspan><tspan x="0" y="36">• C</tspan><tspan class="cls-17" x="12.52" y="36">r</tspan><tspan x="15.83" y="36">a</tspan><tspan class="cls-12" x="21.49" y="36">f</tspan><tspan class="cls-22" x="24.99" y="36">t language that a</tspan><tspan class="cls-16" x="101.44" y="36">r</tspan><tspan x="105.15" y="36">ticula</tspan><tspan class="cls-11" x="129.45" y="36">te</tspan><tspan x="138.07" y="36">s th</tspan><tspan class="cls-11" x="154.58" y="36">e</tspan><tspan x="159.76" y="36">se elements in a cl</tspan><tspan class="cls-11" x="241.37" y="36">e</tspan><tspan x="246.55" y="36">ar and </tspan><tspan class="cls-11" x="278.15" y="36">c</tspan><tspan x="283.05" y="36">ompelling </tspan><tspan class="cls-23" x="327.83" y="36">w</tspan><tspan class="cls-11" x="334.55" y="36">a</tspan><tspan x="339.96" y="36">y.</tspan></text></svg>